<svg id="圖層_1" data-name="圖層 1" xmlns="http://www.w3.org/2000/svg" viewBox="0 0 792.07 245.72"><defs><style>.cls-1{fill:#231815;}</style></defs><title>NFC</title><path class="cls-1" d="M461.73,48.51h33.18V197.2H461.73L390.89,104V197.2H357.71V48.51h31.05l73,95.73Z"/><path class="cls-1" d="M633.6,48.51V77.66H564.68v32.12h65.51v29.14H564.68V197.2H531.5V48.51Z"/><path class="cls-1" d="M730,167.85q24.45,0,40-19.36l21.27,21.91q-25.32,28.51-59.67,28.5T675,177.21q-22.23-21.69-22.23-54.78T675.4,67.24q22.65-22.12,55.41-22.13,36.59,0,61.26,27.87l-20.63,23.4Q755.69,76.81,732.3,76.81q-18.72,0-32,12.23T687,122q0,20.74,12.55,33.29A41.42,41.42,0,0,0,730,167.85Z"/><path class="cls-1" d="M2.89,151.18l167.54-26.89a3,3,0,0,1,.52,0l102,.11a3.25,3.25,0,0,1,3.25,3.25l0,35.33a3.24,3.24,0,0,1-2.73,3.2L105.92,193a3,3,0,0,1-.52,0L3.36,193a3.25,3.25,0,0,1-3.24-3.25l0-35.33A3.24,3.24,0,0,1,2.89,151.18Z"/><rect class="cls-1" x="125.94" y="95.47" width="24.17" height="276.04" rx="3.25" transform="translate(-95.61 371.26) rotate(-89.94)"/><path class="cls-1" d="M273.84,69.61,106.16,110.07a3.29,3.29,0,0,1-.76.09L3.49,110.05A3.25,3.25,0,0,1,.24,106.8L.31,43.7A3.24,3.24,0,0,1,2.8,40.55L170.48.09a3.29,3.29,0,0,1,.76-.09L273.15.11a3.26,3.26,0,0,1,3.25,3.25l-.07,63.1A3.24,3.24,0,0,1,273.84,69.61Z"/></svg>